<svg xmlns="http://www.w3.org/2000/svg" version="1.1" xmlns:xlink="http://www.w3.org/1999/xlink"
    xmlns:svgjs="http://svgjs.dev/svgjs" width="1000" height="600" viewBox="250 250 500 500">
    <rect width="1000" height="1000" fill="#f02d34"></rect>
    <g transform="matrix(0.7,0,0,0.7,147.7527705315843,431.30038181424356)">
        <svg viewBox="0 0 358 66" data-background-color="#f02d34"
            preserveAspectRatio="xMidYMid meet" height="184" width="1000"
            xmlns="http://www.w3.org/2000/svg" xmlns:xlink="http://www.w3.org/1999/xlink">
            <g id="tight-bounds" transform="matrix(1,0,0,1,3.1229535544283635,2.203220498912458)">
                <svg viewBox="0 0 354.7947069326957 61.079499999999996" height="61.079499999999996"
                    width="354.7947069326957">
                    <g>
                        <svg viewBox="0 0 354.7947069326957 61.079499999999996"
                            height="61.079499999999996" width="354.7947069326957">
                            <g>
                                <svg viewBox="0 0 354.7947069326957 61.079499999999996"
                                    height="61.079499999999996" width="354.7947069326957">
                                    <g>
                                        <svg viewBox="0 0 354.7947069326957 61.079499999999996"
                                            height="61.079499999999996" width="354.7947069326957">
                                            <g id="textblocktransform">
                                                <svg
                                                    viewBox="0 0 354.7947069326957 61.079499999999996"
                                                    height="61.079499999999996"
                                                    width="354.7947069326957" id="textblock">
                                                    <g>
                                                        <svg
                                                            viewBox="0 0 354.7947069326957 61.079499999999996"
                                                            height="61.079499999999996"
                                                            width="354.7947069326957">
                                                            <g>
                                                                <svg>
                                                                    <g></g>
                                                                    <g></g>
                                                                </svg>
                                                            </g>
                                                            <g>
                                                                <svg>
                                                                    <g></g>
                                                                    <g>
                                                                        <svg></svg>
                                                                    </g>
                                                                </svg>
                                                            </g>
                                                            <g id="text-0">
                                                                <svg
                                                                    viewBox="0 0 354.7947069326957 61.079499999999996"
                                                                    height="61.079499999999996"
                                                                    width="354.7947069326957">
                                                                    <g>
                                                                        <svg
                                                                            xmlns="http://www.w3.org/2000/svg"
                                                                            data-name="Your Icon"
                                                                            viewBox="24.178707122802734 23.457319259643555 51.62131881713867 53.073280334472656"
                                                                            x="0" y="0"
                                                                            height="61.079499999999996"
                                                                            width="59.4085069326957"
                                                                            class="icon-s-0"
                                                                            data-fill-palette-color="accent"
                                                                            id="s-0">
                                                                            <path
                                                                                d="M37.1 50.73a12.49 12.49 0 0 0-1.65 0.12L44 74.47a13 13 0 0 0 2.31-1.89L38.43 50.79A13 13 0 0 0 37.1 50.73Z"
                                                                                fill="#ffffff"
                                                                                data-fill-palette-color="accent"></path>
                                                                            <path
                                                                                d="M75.8 50.73A25.69 25.69 0 0 0 70 34.44a3 3 0 0 0-0.74-3 27.25 27.25 0 0 0-38.54 0 3 3 0 0 0-0.74 3 25.83 25.83 0 0 0-4.65 23.9 12.87 12.87 0 0 0 16.16 17.4L32.69 51.51a12.94 12.94 0 0 0-5.1 3.41 23 23 0 0 1-0.4-4.2 22.68 22.68 0 0 1 5-14.23A2.94 2.94 0 0 0 35 35.7 21.25 21.25 0 0 1 65 35.7a3 3 0 0 0 2.77 0.8 22.68 22.68 0 0 1 5 14.23 23 23 0 0 1-0.4 4.2 12.94 12.94 0 0 0-5.1-3.41L58.49 75.74a12.88 12.88 0 0 0 16.16-17.4A25.79 25.79 0 0 0 75.8 50.73Z"
                                                                                fill="#ffffff"
                                                                                data-fill-palette-color="accent"></path>
                                                                            <path
                                                                                d="M53.64 72.59A13 13 0 0 0 56 74.47l8.6-23.63a12.49 12.49 0 0 0-1.65-0.12 13 13 0 0 0-1.33 0.07Z"
                                                                                fill="#ffffff"
                                                                                data-fill-palette-color="accent"></path>
                                                                        </svg>
                                                                    </g>
                                                                    <g
                                                                        transform="matrix(1,0,0,1,73.8290069326957,0)">
                                                                        <svg
                                                                            width="280.96569999999997"
                                                                            viewBox="1.7999999523162842 -37.45000076293945 173.63999938964844 37.75"
                                                                            height="61.079499999999996"
                                                                            data-palette-color="#ffffff">
                                                                            <path
                                                                                d="M14.4 0.3L14.4 0.3Q12.75 0.3 11.18 0.2 9.6 0.1 8.08-0.1 6.55-0.3 5.15-0.55 3.75-0.8 2.45-1.15L2.45-1.15 2.45-8.85Q4.15-8.7 6.13-8.6 8.1-8.5 10.13-8.45 12.15-8.4 13.9-8.4L13.9-8.4Q15.55-8.4 16.65-8.65 17.75-8.9 18.3-9.45 18.85-10 18.85-10.95L18.85-10.95 18.85-11.55Q18.85-12.65 18.07-13.2 17.3-13.75 16.25-13.75L16.25-13.75 13.6-13.75Q7.8-13.75 4.8-16.3 1.8-18.85 1.8-24.85L1.8-24.85 1.8-26.5Q1.8-32 5.1-34.73 8.4-37.45 14.6-37.45L14.6-37.45Q16.95-37.45 19.03-37.23 21.1-37 22.93-36.68 24.75-36.35 26.2-36L26.2-36 26.2-28.3Q23.9-28.5 21.03-28.63 18.15-28.75 15.8-28.75L15.8-28.75Q14.4-28.75 13.3-28.55 12.2-28.35 11.6-27.75 11-27.15 11-26L11-26 11-25.5Q11-24.25 11.8-23.6 12.6-22.95 14.25-22.95L14.25-22.95 17.55-22.95Q21.05-22.95 23.38-21.63 25.7-20.3 26.88-18.03 28.05-15.75 28.05-12.85L28.05-12.85 28.05-11.2Q28.05-6.45 26.4-3.95 24.75-1.45 21.7-0.58 18.65 0.3 14.4 0.3ZM42.3 0L32.6 0 32.6-37.15 42.3-37.15 42.3-22.85 53.3-22.85 53.3-37.15 63-37.15 63 0 53.3 0 53.3-14.15 42.3-14.15 42.3 0ZM78.2 0L68.5 0 68.5-37.15 78.2-37.15 78.2 0ZM93.39 0L83.69 0 83.69-37.15 99.99-37.15Q101.89-37.15 103.89-36.73 105.89-36.3 107.57-34.98 109.24-33.65 110.27-30.98 111.29-28.3 111.29-23.85L111.29-23.85Q111.29-19.35 110.29-16.63 109.29-13.9 107.69-12.53 106.09-11.15 104.22-10.68 102.34-10.2 100.54-10.2L100.54-10.2Q99.59-10.2 98.57-10.3 97.54-10.4 96.57-10.58 95.59-10.75 94.77-10.93 93.94-11.1 93.39-11.2L93.39-11.2 93.39 0ZM93.39-28.45L93.39-18.9 98.99-18.9Q99.99-18.9 100.57-19.45 101.14-20 101.37-21.08 101.59-22.15 101.59-23.75L101.59-23.75Q101.59-25.3 101.32-26.35 101.04-27.4 100.49-27.93 99.94-28.45 98.99-28.45L98.99-28.45 93.39-28.45ZM125.04 0L115.34 0 115.34-37.15 131.64-37.15Q133.54-37.15 135.54-36.73 137.54-36.3 139.22-34.98 140.89-33.65 141.92-30.98 142.94-28.3 142.94-23.85L142.94-23.85Q142.94-19.35 141.94-16.63 140.94-13.9 139.34-12.53 137.74-11.15 135.87-10.68 133.99-10.2 132.19-10.2L132.19-10.2Q131.24-10.2 130.22-10.3 129.19-10.4 128.22-10.58 127.24-10.75 126.42-10.93 125.59-11.1 125.04-11.2L125.04-11.2 125.04 0ZM125.04-28.45L125.04-18.9 130.64-18.9Q131.64-18.9 132.22-19.45 132.79-20 133.02-21.08 133.24-22.15 133.24-23.75L133.24-23.75Q133.24-25.3 132.97-26.35 132.69-27.4 132.14-27.93 131.59-28.45 130.64-28.45L130.64-28.45 125.04-28.45ZM156.69 0L146.99 0 146.99-37.15 162.84-37.15Q165.29-37.15 167.34-36.55 169.39-35.95 170.89-34.52 172.39-33.1 173.21-30.7 174.04-28.3 174.04-24.65L174.04-24.65Q174.04-22.35 173.64-20.65 173.24-18.95 172.56-17.78 171.89-16.6 170.96-15.8 170.04-15 168.99-14.4L168.99-14.4 175.44 0 165.59 0 160.39-12.8Q159.94-12.8 159.46-12.8 158.99-12.8 158.54-12.8 158.09-12.8 157.61-12.8 157.14-12.8 156.69-12.8L156.69-12.8 156.69 0ZM156.69-28.45L156.69-20.5 161.09-20.5Q161.89-20.5 162.49-20.73 163.09-20.95 163.51-21.45 163.94-21.95 164.14-22.73 164.34-23.5 164.34-24.6L164.34-24.6Q164.34-25.7 164.14-26.45 163.94-27.2 163.51-27.63 163.09-28.05 162.49-28.25 161.89-28.45 161.09-28.45L161.09-28.45 156.69-28.45Z"
                                                                                opacity="1"
                                                                                transform="matrix(1,0,0,1,0,0)"
                                                                                fill="#ffffff"
                                                                                class="undefined-text-0"
                                                                                data-fill-palette-color="primary"></path>
                                                                        </svg>
                                                                    </g>
                                                                </svg>
                                                            </g>
                                                        </svg>
                                                    </g>
                                                </svg>
                                            </g>
                                        </svg>
                                    </g>
                                </svg>
                            </g>
                        </svg>
                    </g>
                    <defs></defs>
                </svg>
                <rect width="354.7947069326957" height="61.079499999999996" fill="none"
                    stroke="none" visibility="hidden"></rect>
            </g>
        </svg>
    </g>
</svg>